<mxfile host="app.diagrams.net" modified="2021-09-10T05:49:58.827Z" agent="5.0 (Windows NT 10.0; Win64; x64) AppleWebKit/537.36 (KHTML, like Gecko) Chrome/93.0.4577.63 Safari/537.36" etag="AljgKvzcAlEK2sQreIU8" version="15.1.4" type="github">
  <diagram id="mIanIxTLOtAHTVfokB1G" name="Page-1">
    <mxGraphModel dx="716" dy="399" grid="1" gridSize="10" guides="1" tooltips="1" connect="1" arrows="1" fold="1" page="1" pageScale="1" pageWidth="850" pageHeight="1100" math="1" shadow="1">
      <root>
        <mxCell id="0" />
        <mxCell id="1" parent="0" />
        <mxCell id="kW5CJFtHc9ydnyZhcMnz-1" value="" style="ellipse;whiteSpace=wrap;html=1;aspect=fixed;shadow=0;dashed=1;" vertex="1" parent="1">
          <mxGeometry x="320" y="330" width="40" height="40" as="geometry" />
        </mxCell>
        <mxCell id="kW5CJFtHc9ydnyZhcMnz-2" value="" style="endArrow=none;html=1;fillColor=#d5e8d4;strokeColor=#82b366;strokeWidth=6;" edge="1" parent="1">
          <mxGeometry width="50" height="50" relative="1" as="geometry">
            <mxPoint x="310" y="140" as="sourcePoint" />
            <mxPoint x="370" y="140" as="targetPoint" />
          </mxGeometry>
        </mxCell>
        <mxCell id="kW5CJFtHc9ydnyZhcMnz-3" value="" style="endArrow=none;html=1;" edge="1" parent="1" source="kW5CJFtHc9ydnyZhcMnz-1">
          <mxGeometry width="50" height="50" relative="1" as="geometry">
            <mxPoint x="315" y="220" as="sourcePoint" />
            <mxPoint x="340" y="140" as="targetPoint" />
          </mxGeometry>
        </mxCell>
        <mxCell id="kW5CJFtHc9ydnyZhcMnz-4" value="" style="endArrow=none;html=1;startArrow=none;" edge="1" parent="1" source="kW5CJFtHc9ydnyZhcMnz-5">
          <mxGeometry width="50" height="50" relative="1" as="geometry">
            <mxPoint x="430" y="290" as="sourcePoint" />
            <mxPoint x="340" y="140" as="targetPoint" />
          </mxGeometry>
        </mxCell>
        <mxCell id="kW5CJFtHc9ydnyZhcMnz-11" value="" style="curved=1;endArrow=classic;html=1;shadow=0;strokeWidth=1;" edge="1" parent="1">
          <mxGeometry width="50" height="50" relative="1" as="geometry">
            <mxPoint x="340" y="190" as="sourcePoint" />
            <mxPoint x="360" y="170" as="targetPoint" />
            <Array as="points">
              <mxPoint x="350" y="190" />
              <mxPoint x="360" y="180" />
            </Array>
          </mxGeometry>
        </mxCell>
        <mxCell id="kW5CJFtHc9ydnyZhcMnz-12" value="&lt;font size=&quot;1&quot;&gt;Angle theta&amp;nbsp;&lt;/font&gt;" style="text;html=1;align=center;verticalAlign=middle;resizable=0;points=[];autosize=1;strokeColor=none;fillColor=none;" vertex="1" parent="1">
          <mxGeometry x="355" y="150" width="70" height="20" as="geometry" />
        </mxCell>
        <mxCell id="kW5CJFtHc9ydnyZhcMnz-14" value="" style="endArrow=none;html=1;shadow=0;strokeWidth=1;dashed=1;startArrow=none;" edge="1" parent="1" source="kW5CJFtHc9ydnyZhcMnz-5">
          <mxGeometry width="50" height="50" relative="1" as="geometry">
            <mxPoint x="340" y="291" as="sourcePoint" />
            <mxPoint x="445" y="290" as="targetPoint" />
          </mxGeometry>
        </mxCell>
        <mxCell id="kW5CJFtHc9ydnyZhcMnz-5" value="" style="ellipse;whiteSpace=wrap;html=1;aspect=fixed;shadow=0;dashed=1;" vertex="1" parent="1">
          <mxGeometry x="440" y="270" width="40" height="40" as="geometry" />
        </mxCell>
        <mxCell id="kW5CJFtHc9ydnyZhcMnz-16" value="" style="endArrow=none;html=1;shadow=0;strokeWidth=1;dashed=1;" edge="1" parent="1" target="kW5CJFtHc9ydnyZhcMnz-5">
          <mxGeometry width="50" height="50" relative="1" as="geometry">
            <mxPoint x="340" y="291" as="sourcePoint" />
            <mxPoint x="445" y="290" as="targetPoint" />
          </mxGeometry>
        </mxCell>
        <mxCell id="kW5CJFtHc9ydnyZhcMnz-19" value="" style="endArrow=classic;html=1;shadow=0;strokeWidth=1;" edge="1" parent="1" source="kW5CJFtHc9ydnyZhcMnz-1">
          <mxGeometry width="50" height="50" relative="1" as="geometry">
            <mxPoint x="339.71000000000004" y="360" as="sourcePoint" />
            <mxPoint x="340" y="410" as="targetPoint" />
          </mxGeometry>
        </mxCell>
        <mxCell id="kW5CJFtHc9ydnyZhcMnz-23" value="" style="edgeStyle=orthogonalEdgeStyle;curved=1;orthogonalLoop=1;jettySize=auto;html=1;shadow=0;strokeWidth=1;" edge="1" parent="1" source="kW5CJFtHc9ydnyZhcMnz-20" target="kW5CJFtHc9ydnyZhcMnz-22">
          <mxGeometry relative="1" as="geometry" />
        </mxCell>
        <mxCell id="kW5CJFtHc9ydnyZhcMnz-20" value="mg&lt;br&gt;" style="text;html=1;align=center;verticalAlign=middle;resizable=0;points=[];autosize=1;strokeColor=none;fillColor=none;" vertex="1" parent="1">
          <mxGeometry x="325" y="410" width="30" height="20" as="geometry" />
        </mxCell>
        <mxCell id="kW5CJFtHc9ydnyZhcMnz-22" value="m=mass of the ball&lt;br&gt;g=acceleration due to gravity(9.8m/s^2)" style="ellipse;whiteSpace=wrap;html=1;shadow=0;dashed=1;" vertex="1" parent="1">
          <mxGeometry x="170" y="390" width="120" height="60" as="geometry" />
        </mxCell>
        <mxCell id="kW5CJFtHc9ydnyZhcMnz-24" value="" style="endArrow=none;html=1;shadow=0;strokeWidth=1;" edge="1" parent="1">
          <mxGeometry width="50" height="50" relative="1" as="geometry">
            <mxPoint x="360" y="350" as="sourcePoint" />
            <mxPoint x="670" y="350" as="targetPoint" />
          </mxGeometry>
        </mxCell>
        <mxCell id="kW5CJFtHc9ydnyZhcMnz-25" value="" style="endArrow=none;html=1;shadow=0;strokeWidth=1;" edge="1" parent="1">
          <mxGeometry width="50" height="50" relative="1" as="geometry">
            <mxPoint x="480" y="289.65999999999997" as="sourcePoint" />
            <mxPoint x="630" y="289.65999999999997" as="targetPoint" />
          </mxGeometry>
        </mxCell>
        <mxCell id="kW5CJFtHc9ydnyZhcMnz-26" value="" style="endArrow=classic;startArrow=classic;html=1;shadow=0;strokeWidth=1;" edge="1" parent="1">
          <mxGeometry width="50" height="50" relative="1" as="geometry">
            <mxPoint x="600" y="350" as="sourcePoint" />
            <mxPoint x="600" y="290" as="targetPoint" />
          </mxGeometry>
        </mxCell>
        <mxCell id="kW5CJFtHc9ydnyZhcMnz-27" value="Height=h" style="text;html=1;align=center;verticalAlign=middle;resizable=0;points=[];autosize=1;strokeColor=none;fillColor=none;" vertex="1" parent="1">
          <mxGeometry x="530" y="310" width="60" height="20" as="geometry" />
        </mxCell>
        <mxCell id="kW5CJFtHc9ydnyZhcMnz-28" value="" style="endArrow=classic;html=1;shadow=0;strokeWidth=1;fontStyle=1" edge="1" parent="1">
          <mxGeometry width="50" height="50" relative="1" as="geometry">
            <mxPoint x="460" y="290" as="sourcePoint" />
            <mxPoint x="420" y="330" as="targetPoint" />
          </mxGeometry>
        </mxCell>
        <mxCell id="kW5CJFtHc9ydnyZhcMnz-30" value="mg*sin(theta)" style="text;html=1;align=center;verticalAlign=middle;resizable=0;points=[];autosize=1;strokeColor=none;fillColor=none;" vertex="1" parent="1">
          <mxGeometry x="375" y="350" width="90" height="20" as="geometry" />
        </mxCell>
        <mxCell id="kW5CJFtHc9ydnyZhcMnz-31" value="" style="endArrow=classic;html=1;shadow=0;strokeWidth=1;" edge="1" parent="1">
          <mxGeometry width="50" height="50" relative="1" as="geometry">
            <mxPoint x="465" y="290" as="sourcePoint" />
            <mxPoint x="520" y="360" as="targetPoint" />
          </mxGeometry>
        </mxCell>
        <mxCell id="kW5CJFtHc9ydnyZhcMnz-32" value="mg cos(theta)" style="text;html=1;align=center;verticalAlign=middle;resizable=0;points=[];autosize=1;strokeColor=none;fillColor=none;" vertex="1" parent="1">
          <mxGeometry x="475" y="360" width="90" height="20" as="geometry" />
        </mxCell>
      </root>
    </mxGraphModel>
  </diagram>
</mxfile>
